<svg width="178" height="51" viewBox="0 0 178 51" fill="none" xmlns="http://www.w3.org/2000/svg">
<path d="M11.0415 18.0625V46.75H41.9582V18.0625" stroke="#6ABC6D" stroke-width="4.17" stroke-linecap="round" stroke-linejoin="round"/>
<path d="M5.521 23.3752L11.0418 18.0627L26.5002 4.25024L41.9585 18.0627L47.4793 23.3752" stroke="#6ABC6D" stroke-width="4.17" stroke-linecap="round" stroke-linejoin="round"/>
<path d="M20.9795 20.1873L26.5003 26.5623L32.0212 20.1873" stroke="#6ABC6D" stroke-width="4.17" stroke-linecap="round" stroke-linejoin="round"/>
<path d="M19.875 32.9375H33.125" stroke="#6ABC6D" stroke-width="4.17" stroke-linecap="round" stroke-linejoin="round"/>
<path d="M19.875 26.5623H33.125" stroke="#6ABC6D" stroke-width="4.17" stroke-linecap="round" stroke-linejoin="round"/>
<path d="M26.5 26.5623V39.3123" stroke="#6ABC6D" stroke-width="4.17" stroke-linecap="round" stroke-linejoin="round"/>
<path d="M54.176 38.7085V38.1205C55.184 38.1205 55.772 37.9338 55.94 37.5605V23.4765C55.772 23.1032 55.184 22.9165 54.176 22.9165V22.3285H65.46V25.0445H64.872C64.872 24.0365 64.6853 23.4485 64.312 23.2805H58.516V29.7205H62.436C62.8093 29.5525 62.996 28.9645 62.996 27.9565H63.584V32.4365H62.996C62.996 31.4285 62.8093 30.8405 62.436 30.6725H58.516V37.5605C58.684 37.9338 59.272 38.1205 60.28 38.1205V38.7085H54.176ZM69.1941 31.7645C69.1941 33.8925 69.5954 35.4885 70.3981 36.5525C71.2194 37.6165 72.2647 38.1485 73.5341 38.1485C74.5421 38.1485 75.3541 37.7005 75.9701 36.8045C76.5861 35.8898 76.8941 34.7232 76.8941 33.3045C76.8941 29.0858 75.4287 26.9765 72.4981 26.9765C71.5087 26.9765 70.7061 27.4525 70.0901 28.4045C69.4927 29.3378 69.1941 30.4578 69.1941 31.7645ZM73.1701 38.9885C71.0794 38.9885 69.4461 38.3818 68.2701 37.1685C67.0941 35.9365 66.5061 34.3218 66.5061 32.3245C66.5061 30.5138 67.0381 29.0298 68.1021 27.8725C69.1661 26.6965 70.7901 26.1085 72.9741 26.1085C75.1767 26.1085 76.8287 26.6965 77.9301 27.8725C79.0314 29.0298 79.5821 30.6258 79.5821 32.6605C79.5821 34.4712 79.0501 35.9832 77.9861 37.1965C76.9407 38.3912 75.3354 38.9885 73.1701 38.9885ZM84.4519 31.7645C84.4519 33.8925 84.8532 35.4885 85.6559 36.5525C86.4772 37.6165 87.5225 38.1485 88.7919 38.1485C89.7999 38.1485 90.6119 37.7005 91.2279 36.8045C91.8439 35.8898 92.1519 34.7232 92.1519 33.3045C92.1519 29.0858 90.6865 26.9765 87.7559 26.9765C86.7665 26.9765 85.9639 27.4525 85.3479 28.4045C84.7505 29.3378 84.4519 30.4578 84.4519 31.7645ZM88.4279 38.9885C86.3372 38.9885 84.7039 38.3818 83.5279 37.1685C82.3519 35.9365 81.7639 34.3218 81.7639 32.3245C81.7639 30.5138 82.2959 29.0298 83.3599 27.8725C84.4239 26.6965 86.0479 26.1085 88.2319 26.1085C90.4345 26.1085 92.0865 26.6965 93.1879 27.8725C94.2892 29.0298 94.8399 30.6258 94.8399 32.6605C94.8399 34.4712 94.3079 35.9832 93.2439 37.1965C92.1985 38.3912 90.5932 38.9885 88.4279 38.9885ZM106.094 26.6685V23.0565C106.094 23.0565 105.506 23.0098 104.33 22.9165V22.2725C104.684 22.2725 105.375 22.0765 106.402 21.6845C107.447 21.2738 108.184 21.0685 108.614 21.0685V37.0005L110.378 37.1405V37.7845C110.023 37.7845 109.323 37.9898 108.278 38.4005C107.251 38.7925 106.523 38.9885 106.094 38.9885V38.0645C105.198 38.6805 104.078 38.9885 102.734 38.9885C102.118 38.9885 101.502 38.8858 100.886 38.6805C100.288 38.4565 99.6817 38.1205 99.0657 37.6725C98.4684 37.2058 97.9737 36.5245 97.5817 35.6285C97.2084 34.7325 97.0217 33.6872 97.0217 32.4925C97.0217 30.4018 97.6004 28.7965 98.7577 27.6765C99.9337 26.5565 101.464 25.9965 103.35 25.9965C104.414 25.9965 105.328 26.2205 106.094 26.6685ZM106.094 27.5365C105.422 27.1445 104.563 26.9485 103.518 26.9485C102.491 26.9485 101.595 27.4432 100.83 28.4325C100.064 29.4218 99.6817 30.7752 99.6817 32.4925C99.6817 33.6312 100.008 34.8445 100.662 36.1325C101.334 37.4018 102.118 38.0365 103.014 38.0365C104.246 38.0365 105.272 37.7378 106.094 37.1405V27.5365ZM112.873 23.0565C111.715 22.9632 111.127 22.9165 111.109 22.9165V22.2725C111.463 22.2725 112.154 22.0765 113.181 21.6845C114.226 21.2738 114.963 21.0685 115.393 21.0685V27.3125C116.307 26.4352 117.586 25.9965 119.229 25.9965C119.845 25.9965 120.451 26.1085 121.049 26.3325C121.665 26.5378 122.271 26.8738 122.869 27.3405C123.485 27.7885 123.979 28.4605 124.353 29.3565C124.745 30.2525 124.941 31.2978 124.941 32.4925C124.941 34.5832 124.353 36.1885 123.177 37.3085C122.019 38.4285 120.498 38.9885 118.613 38.9885C117.269 38.9885 116.158 38.6338 115.281 37.9245C114.254 38.6338 113.451 38.9885 112.873 38.9885V23.0565ZM115.393 28.2645V37.0565C116.139 37.7098 117.157 38.0365 118.445 38.0365C119.471 38.0365 120.367 37.5512 121.133 36.5805C121.898 35.5912 122.281 34.2285 122.281 32.4925C122.281 30.8498 121.973 29.5152 121.357 28.4885C120.741 27.4618 119.938 26.9485 118.949 26.9485C117.381 26.9485 116.195 27.3872 115.393 28.2645ZM129.171 28.4605C129.432 28.4605 129.656 28.5538 129.843 28.7405C130.048 28.9272 130.151 29.2165 130.151 29.6085C130.151 29.9258 130.02 30.1685 129.759 30.3365C129.516 30.5045 129.227 30.5885 128.891 30.5885C128.536 30.5885 128.247 30.4672 128.023 30.2245C127.799 29.9632 127.687 29.6178 127.687 29.1885C127.687 28.2178 128.088 27.4618 128.891 26.9205C129.694 26.3792 130.832 26.1085 132.307 26.1085C134.043 26.1085 135.312 26.5378 136.115 27.3965C136.936 28.2552 137.347 29.3938 137.347 30.8125V36.3565C137.347 36.9538 137.44 37.3925 137.627 37.6725C137.832 37.9525 138.075 38.0925 138.355 38.0925C138.598 38.0925 138.812 38.0272 138.999 37.8965C139.204 37.7658 139.307 37.6072 139.307 37.4205H139.811C139.811 37.9432 139.615 38.3258 139.223 38.5685C138.85 38.8112 138.187 38.9325 137.235 38.9325C136.302 38.9325 135.639 38.5498 135.247 37.7845C134.146 38.5872 132.774 38.9885 131.131 38.9885C128.331 38.9885 126.931 37.8498 126.931 35.5725C126.931 35.0872 127.099 34.6485 127.435 34.2565C127.79 33.8645 128.294 33.5378 128.947 33.2765C129.6 33.0152 130.216 32.8098 130.795 32.6605C131.374 32.4925 132.092 32.3152 132.951 32.1285C133.828 31.9232 134.454 31.7645 134.827 31.6525C134.827 30.0845 134.622 28.9365 134.211 28.2085C133.8 27.4805 133.072 27.1165 132.027 27.1165C130.347 27.1165 129.395 27.5645 129.171 28.4605ZM134.995 37.0845C134.883 36.6738 134.827 36.1698 134.827 35.5725V32.2685C134.622 32.3432 134.267 32.4458 133.763 32.5765C133.278 32.7072 132.876 32.8192 132.559 32.9125C132.26 33.0058 131.896 33.1458 131.467 33.3325C131.038 33.5192 130.702 33.7058 130.459 33.8925C130.216 34.0792 130.002 34.3312 129.815 34.6485C129.628 34.9472 129.535 35.2738 129.535 35.6285C129.535 36.5245 129.703 37.1498 130.039 37.5045C130.394 37.8592 130.916 38.0365 131.607 38.0365C132.839 38.0365 133.968 37.7192 134.995 37.0845ZM140.438 38.7085V38.1205C141.446 38.1205 142.034 37.9338 142.202 37.5605V28.0965C141.045 28.0032 140.457 27.9565 140.438 27.9565V27.3125C140.793 27.3125 141.484 27.1165 142.51 26.7245C143.556 26.3138 144.293 26.1085 144.722 26.1085V27.3965C145.73 26.5378 146.841 26.1085 148.054 26.1085C149.79 26.1085 151.041 26.4352 151.806 27.0885C152.59 27.7232 152.982 28.7218 152.982 30.0845V37.5605C153.15 37.9338 153.738 38.1205 154.746 38.1205V38.7085H148.698V38.1205C149.706 38.1205 150.294 37.9338 150.462 37.5605V29.8885C150.462 28.0032 149.604 27.0605 147.886 27.0605C146.71 27.0605 145.656 27.4712 144.722 28.2925V37.5605C144.89 37.9338 145.478 38.1205 146.486 38.1205V38.7085H140.438ZM155.799 38.7085V38.1205C156.807 38.1205 157.395 37.9338 157.563 37.5605V23.0565C156.406 22.9632 155.818 22.9165 155.799 22.9165V22.2725C156.154 22.2725 156.844 22.0765 157.871 21.6845C158.916 21.2738 159.654 21.0685 160.083 21.0685V37.5605C160.251 37.9338 160.839 38.1205 161.847 38.1205V38.7085H155.799ZM163.891 38.7085V38.1205C164.339 38.1205 164.694 38.0925 164.955 38.0365L160.279 31.5965L165.235 27.1445C164.955 27.0325 164.498 26.9765 163.863 26.9765V26.3885H168.259V26.9765C167.568 26.9765 167.064 27.0978 166.747 27.3405L162.771 30.8965L167.587 37.5885C167.848 37.9432 168.436 38.1205 169.351 38.1205V38.7085H163.891Z" fill="#6ABC6D"/>
</svg>
