<svg width="378" height="109" viewBox="0 0 378 109" fill="none" xmlns="http://www.w3.org/2000/svg">
<path d="M23.4492 38.3589V99.2795H89.1037V38.3589" stroke="white" stroke-width="8.85539" stroke-linecap="round" stroke-linejoin="round"/>
<path d="M11.7246 49.6382L23.4486 38.3566L56.2759 9.02441L89.1031 38.3566L100.827 49.6382" stroke="white" stroke-width="8.85539" stroke-linecap="round" stroke-linejoin="round"/>
<path d="M44.552 42.8696L56.276 56.4076L68 42.8696" stroke="white" stroke-width="8.85539" stroke-linecap="round" stroke-linejoin="round"/>
<path d="M42.2053 69.9458H70.343" stroke="white" stroke-width="8.85539" stroke-linecap="round" stroke-linejoin="round"/>
<path d="M42.2053 56.4077H70.343" stroke="white" stroke-width="8.85539" stroke-linecap="round" stroke-linejoin="round"/>
<path d="M56.2764 56.4077V83.4836" stroke="white" stroke-width="8.85539" stroke-linecap="round" stroke-linejoin="round"/>
<path d="M115.048 82.1113V80.8627C117.189 80.8627 118.437 80.4662 118.794 79.6734V49.7647C118.437 48.9719 117.189 48.5755 115.048 48.5755V47.3268H139.011V53.0945H137.762C137.762 50.9539 137.366 49.7053 136.573 49.3485H124.265V63.0245H132.589C133.382 62.6677 133.778 61.419 133.778 59.2784H135.027V68.7921H133.778C133.778 66.6516 133.382 65.4029 132.589 65.0461H124.265V79.6734C124.621 80.4662 125.87 80.8627 128.011 80.8627V82.1113H115.048ZM146.94 67.3651C146.94 71.8841 147.793 75.2734 149.497 77.5329C151.241 79.7924 153.461 80.9221 156.157 80.9221C158.297 80.9221 160.022 79.9707 161.33 78.068C162.638 76.1256 163.292 73.6481 163.292 70.6354C163.292 61.6767 160.18 57.1973 153.957 57.1973C151.856 57.1973 150.151 58.2081 148.843 60.2298C147.575 62.2118 146.94 64.5902 146.94 67.3651ZM155.384 82.7059C150.944 82.7059 147.476 81.4176 144.978 78.841C142.481 76.2247 141.232 72.7958 141.232 68.5543C141.232 64.7092 142.362 61.5578 144.621 59.1C146.881 56.6027 150.33 55.354 154.968 55.354C159.645 55.354 163.153 56.6027 165.492 59.1C167.831 61.5578 169 64.947 169 69.2678C169 73.1129 167.871 76.3238 165.611 78.9005C163.391 81.4374 159.982 82.7059 155.384 82.7059ZM179.342 67.3651C179.342 71.8841 180.194 75.2734 181.899 77.5329C183.643 79.7924 185.863 80.9221 188.558 80.9221C190.699 80.9221 192.423 79.9707 193.731 78.068C195.039 76.1256 195.694 73.6481 195.694 70.6354C195.694 61.6767 192.582 57.1973 186.358 57.1973C184.257 57.1973 182.553 58.2081 181.245 60.2298C179.976 62.2118 179.342 64.5902 179.342 67.3651ZM187.785 82.7059C183.346 82.7059 179.877 81.4176 177.38 78.841C174.882 76.2247 173.634 72.7958 173.634 68.5543C173.634 64.7092 174.763 61.5578 177.023 59.1C179.282 56.6027 182.731 55.354 187.369 55.354C192.047 55.354 195.555 56.6027 197.894 59.1C200.232 61.5578 201.402 64.947 201.402 69.2678C201.402 73.1129 200.272 76.3238 198.012 78.9005C195.793 81.4374 192.384 82.7059 187.785 82.7059ZM225.3 56.5432V48.8728C225.3 48.8728 224.052 48.7737 221.554 48.5755V47.2079C222.307 47.2079 223.774 46.7917 225.954 45.9592C228.174 45.0871 229.74 44.6511 230.652 44.6511V78.4842L234.398 78.7815V80.1491C233.645 80.1491 232.158 80.5852 229.938 81.4573C227.758 82.2897 226.212 82.7059 225.3 82.7059V80.7437C223.398 82.0519 221.019 82.7059 218.165 82.7059C216.857 82.7059 215.549 82.4879 214.241 82.0519C212.972 81.5762 211.684 80.8627 210.376 79.9113C209.107 78.9203 208.057 77.4734 207.224 75.5707C206.431 73.6679 206.035 71.448 206.035 68.9111C206.035 64.4713 207.264 61.0622 209.722 58.6838C212.219 56.3054 215.469 55.1162 219.473 55.1162C221.733 55.1162 223.675 55.5919 225.3 56.5432ZM225.3 58.3865C223.873 57.5541 222.05 57.1378 219.83 57.1378C217.65 57.1378 215.747 58.1883 214.122 60.2893C212.496 62.3902 211.684 65.2641 211.684 68.9111C211.684 71.3291 212.378 73.9058 213.765 76.6409C215.192 79.3365 216.857 80.6843 218.76 80.6843C221.376 80.6843 223.556 80.05 225.3 78.7815V58.3865ZM239.696 48.8728C237.239 48.6746 235.99 48.5755 235.95 48.5755V47.2079C236.703 47.2079 238.17 46.7917 240.35 45.9592C242.57 45.0871 244.136 44.6511 245.048 44.6511V57.9108C246.99 56.0477 249.705 55.1162 253.194 55.1162C254.502 55.1162 255.79 55.354 257.059 55.8297C258.367 56.2658 259.655 56.9793 260.924 57.9703C262.232 58.9217 263.282 60.3487 264.075 62.2515C264.908 64.1542 265.324 66.3741 265.324 68.9111C265.324 73.3508 264.075 76.7599 261.578 79.1383C259.12 81.5167 255.889 82.7059 251.886 82.7059C249.032 82.7059 246.673 81.9528 244.81 80.4464C242.63 81.9528 240.925 82.7059 239.696 82.7059V48.8728ZM245.048 59.9325V78.6031C246.633 79.9906 248.794 80.6843 251.529 80.6843C253.709 80.6843 255.612 79.6536 257.237 77.5923C258.862 75.4914 259.675 72.5976 259.675 68.9111C259.675 65.4227 259.021 62.5884 257.713 60.4082C256.405 58.228 254.7 57.1378 252.599 57.1378C249.269 57.1378 246.752 58.0694 245.048 59.9325ZM274.307 60.3487C274.862 60.3487 275.338 60.5469 275.735 60.9433C276.171 61.3397 276.389 61.9542 276.389 62.7866C276.389 63.4605 276.111 63.9758 275.556 64.3326C275.041 64.6893 274.426 64.8677 273.713 64.8677C272.96 64.8677 272.345 64.6101 271.87 64.0947C271.394 63.5398 271.156 62.8064 271.156 61.8947C271.156 59.8334 272.008 58.228 273.713 57.0784C275.417 55.9288 277.835 55.354 280.967 55.354C284.654 55.354 287.349 56.2658 289.054 58.0892C290.798 59.9127 291.67 62.3307 291.67 65.3434V77.1166C291.67 78.3851 291.868 79.3167 292.265 79.9113C292.701 80.5059 293.216 80.8032 293.811 80.8032C294.326 80.8032 294.782 80.6645 295.178 80.387C295.614 80.1095 295.832 79.7725 295.832 79.3761H296.903C296.903 80.4861 296.486 81.2987 295.654 81.814C294.861 82.3294 293.454 82.587 291.432 82.587C289.45 82.587 288.043 81.7744 287.21 80.1491C284.872 81.8537 281.958 82.7059 278.47 82.7059C272.524 82.7059 269.551 80.2879 269.551 75.4517C269.551 74.4211 269.907 73.4895 270.621 72.6571C271.374 71.8246 272.444 71.1309 273.832 70.576C275.219 70.021 276.527 69.5849 277.756 69.2678C278.985 68.9111 280.511 68.5345 282.335 68.1381C284.198 67.702 285.526 67.3651 286.319 67.1272C286.319 63.7974 285.883 61.3596 285.01 59.8136C284.138 58.2676 282.592 57.4946 280.372 57.4946C276.805 57.4946 274.783 58.446 274.307 60.3487ZM286.675 78.6626C286.437 77.7905 286.319 76.7202 286.319 75.4517V68.4354C285.883 68.5939 285.129 68.812 284.059 69.0894C283.028 69.3669 282.176 69.6048 281.502 69.803C280.868 70.0012 280.095 70.2985 279.183 70.6949C278.272 71.0913 277.558 71.4877 277.043 71.8841C276.527 72.2805 276.071 72.8156 275.675 73.4895C275.279 74.1238 275.08 74.8175 275.08 75.5707C275.08 77.4734 275.437 78.8014 276.151 79.5545C276.904 80.3077 278.014 80.6843 279.481 80.6843C282.097 80.6843 284.495 80.0104 286.675 78.6626ZM298.234 82.1113V80.8627C300.375 80.8627 301.624 80.4662 301.98 79.6734V59.5757C299.523 59.3775 298.274 59.2784 298.234 59.2784V57.9108C298.988 57.9108 300.454 57.4946 302.634 56.6622C304.854 55.7901 306.42 55.354 307.332 55.354V58.0892C309.472 56.2658 311.831 55.354 314.408 55.354C318.094 55.354 320.75 56.0477 322.375 57.4351C324.04 58.7829 324.873 60.9037 324.873 63.7974V79.6734C325.23 80.4662 326.478 80.8627 328.619 80.8627V82.1113H315.775V80.8627C317.916 80.8627 319.165 80.4662 319.521 79.6734V63.3812C319.521 59.3775 317.698 57.3757 314.051 57.3757C311.554 57.3757 309.314 58.2478 307.332 59.992V79.6734C307.689 80.4662 308.937 80.8627 311.078 80.8627V82.1113H298.234ZM330.854 82.1113V80.8627C332.995 80.8627 334.243 80.4662 334.6 79.6734V48.8728C332.142 48.6746 330.894 48.5755 330.854 48.5755V47.2079C331.607 47.2079 333.074 46.7917 335.254 45.9592C337.474 45.0871 339.04 44.6511 339.952 44.6511V79.6734C340.308 80.4662 341.557 80.8627 343.698 80.8627V82.1113H330.854ZM348.038 82.1113V80.8627C348.99 80.8627 349.743 80.8032 350.298 80.6843L340.368 67.0083L350.892 57.5541C350.298 57.3162 349.327 57.1973 347.979 57.1973V55.9486H357.314V57.1973C355.847 57.1973 354.777 57.455 354.103 57.9703L345.66 65.5218L355.887 79.7329C356.442 80.4861 357.691 80.8627 359.633 80.8627V82.1113H348.038Z" fill="white"/>
</svg>
